<svg xmlns="http://www.w3.org/2000/svg" xmlns:xlink="http://www.w3.org/1999/xlink" width="98.542" height="28.977" viewBox="0 0 98.542 28.977">
  <defs>
    <linearGradient id="linear-gradient" x1="-0.109" y1="1.642" x2="-0.107" y2="1.642" gradientUnits="objectBoundingBox">
      <stop offset="0" stop-color="#e9d783"/>
      <stop offset="1" stop-color="#fff"/>
    </linearGradient>
    <linearGradient id="linear-gradient-2" x1="-4.346" y1="1.973" x2="-4.339" y2="1.973" xlink:href="#linear-gradient"/>
    <clipPath id="clip-path">
      <path id="path16" d="M127.367-457.47a27.78,27.78,0,0,1-5.543-.675h0a1.614,1.614,0,0,0-.746,1.528h0c0,1.457.817,2.025,4.263,2.238h0c-1.634,2.594-2.984,4.832-2.984,4.832h0c-.467.774-.917,1.57-1.34,2.36h0a28.041,28.041,0,0,0-4.825,4.56h0a23.417,23.417,0,0,0,.427-4.583h0c0-.675-.035-1.35-.035-1.883h0c0-2.2,2.025-2.025,2.025-3.339h0c0-1.1-1.208-1.918-2.842-1.918h0c-1.066,0-2.452,1.208-2.771,3.908h0a31.306,31.306,0,0,0-6,5.116h0a3.065,3.065,0,0,0-.568-.036h0c-1.066,0-1.137.924-1.137,1.706h0v.213c-1.1,1.244-2.273,2.665-3.553,4.335h0a38.028,38.028,0,0,1,7.425-13.181h0s-.071-1.528-2.309-2.061h-.178c-1.1,0-2.984,2.487-4.654,5.4h0c-.888.568-3.482,2.594-9.024,9.912h0l-.035.035a38.24,38.24,0,0,1,7.425-13.288h0c0-.035.036-1.457-2.238-2.025h-.178c-2.451,0-8.491,12.186-8.491,13.891h0a4.221,4.221,0,0,0,2.489,3.521h0c.2.068.613.22.862.078h0c1.386-.888,3.649-4.913,6.953-7.933h0a16.436,16.436,0,0,0-1.635,4.37h0a4,4,0,0,0,2.594,3.482h0a2.888,2.888,0,0,0,.853.1h0a.361.361,0,0,0,.14-.06h0a38.21,38.21,0,0,0,3.98-4.3h0c.782,2.416,2.594,4.583,4.654,4.583h0a5.12,5.12,0,0,0,4.69-2.736h0a31.059,31.059,0,0,1,4.438-4.8h0a15.576,15.576,0,0,0-1.47,4.132h0a3.31,3.31,0,0,0,3.168,3.446h.421c.982.168,5.116-8.029,10.871-10.8h0l-.959-1.99s-2.274.675-9.7,10.41h0a3.254,3.254,0,0,0-.177.32h0a41.016,41.016,0,0,1,5.541-11.049h0l1.99-3.127c.284-.462.533-1.03.888-1.528h0a18.649,18.649,0,0,0,5.223-.64h0a3.5,3.5,0,0,0,1.563-2.878h0a2.594,2.594,0,0,0-.32-1.244h0l-1.173.817a27.431,27.431,0,0,1-3.055.5h0l.213-.32.071-.071c.995-1.527,2.167-3.34,2.167-3.34h0a2.3,2.3,0,0,0-1.919-1.35h0c-1.385,0-2.2.5-5.471,5.365M107.6-442.664a4.392,4.392,0,0,1,.071-.675h0a28.388,28.388,0,0,1,5.222-4.548h0c-.391,7.284-1.918,8.491-3.055,8.527h0c-1.031,0-2.238-1.563-2.238-3.3M84.445-459.22a3.325,3.325,0,0,0-1.066,2.416h0a2.415,2.415,0,0,0,.568,1.635h0l.924-.924a31.785,31.785,0,0,1,7.816-2.061h0c-1.137,2.238-5.329,13.287-15.241,19.4h0a.13.13,0,0,1-.107.036h0a1.875,1.875,0,0,1-1.492-1.741h0a2,2,0,0,1,.853-1.528h0a.323.323,0,0,0,.107-.249h0a1.037,1.037,0,0,0-.995-.853h0c-1.421,0-2.2,2.558-2.2,3.2h0c0,1.812,1.776,3.3,4.477,3.3h0c8.1,0,17.8-19.612,18.3-20.89h0a4.576,4.576,0,0,0,.32-.924h0c.284,0,.6.036.924.036h0a1.453,1.453,0,0,0,.462-1.137h0a3.044,3.044,0,0,0-.32-1.315h0c-.213-.462-1.137-.639-2.38-.639h0c-3.695,0-10.161,1.563-10.943,2.238" transform="translate(-73.609 462.835)" fill="url(#linear-gradient)"/>
    </clipPath>
    <linearGradient id="linear-gradient-4" x1="0.855" y1="0.083" x2="0.311" y2="0.896" gradientUnits="objectBoundingBox">
      <stop offset="0" stop-color="#e5d17d"/>
      <stop offset="1" stop-color="#bf9044"/>
    </linearGradient>
    <clipPath id="clip-path-2">
      <path id="path48" d="M927.21-371.408c-2.487,0-8.527,12.222-8.527,13.927h0A4,4,0,0,0,921.277-354h0a1.463,1.463,0,0,0,1.176.051h0c1.421-.924,3.3-4.954,6.676-7.974h0a16.259,16.259,0,0,0-1.67,4.441h0A4.024,4.024,0,0,0,930.016-354h0a1.23,1.23,0,0,0,1.046-.048h0c.785-.4.3-.273,4.217-3.883h0l-.454-2.181s-3.833,4-3.84,4.026h0s-.011-.009-.044-.009h0a37.907,37.907,0,0,1,7.461-13.287h0s.036-1.457-2.274-2.025h-.177c-1.1,0-2.913,2.451-4.619,5.329h0c-.745.461-3.334,2.341-9.112,9.958h0a37.391,37.391,0,0,1,7.406-13.263h0c0-.036.036-1.456-2.238-2.025h-.179Z" transform="translate(-918.683 371.408)" fill="url(#linear-gradient-2)"/>
    </clipPath>
  </defs>
  <g id="Group_18578" data-name="Group 18578" transform="translate(17310.859 -10713.096)">
    <g id="g12" transform="translate(-17310.859 10713.648)">
      <g id="g14" transform="translate(0 0)" clip-path="url(#clip-path)">
        <g id="g20">
          <g id="g22">
            <path id="path30" d="M127.367-457.47a27.78,27.78,0,0,1-5.543-.675h0a1.614,1.614,0,0,0-.746,1.528h0c0,1.457.817,2.025,4.263,2.238h0c-1.634,2.594-2.984,4.832-2.984,4.832h0c-.467.774-.917,1.57-1.34,2.36h0a28.041,28.041,0,0,0-4.825,4.56h0a23.417,23.417,0,0,0,.427-4.583h0c0-.675-.035-1.35-.035-1.883h0c0-2.2,2.025-2.025,2.025-3.339h0c0-1.1-1.208-1.918-2.842-1.918h0c-1.066,0-2.452,1.208-2.771,3.908h0a31.306,31.306,0,0,0-6,5.116h0a3.065,3.065,0,0,0-.568-.036h0c-1.066,0-1.137.924-1.137,1.706h0v.213c-1.1,1.244-2.273,2.665-3.553,4.335h0a38.028,38.028,0,0,1,7.425-13.181h0s-.071-1.528-2.309-2.061h-.178c-1.1,0-2.984,2.487-4.654,5.4h0c-.888.568-3.482,2.594-9.024,9.912h0l-.035.035a38.24,38.24,0,0,1,7.425-13.288h0c0-.035.036-1.457-2.238-2.025h-.178c-2.451,0-8.491,12.186-8.491,13.891h0a4.221,4.221,0,0,0,2.489,3.521h0c.2.068.613.22.862.078h0c1.386-.888,3.649-4.913,6.953-7.933h0a16.436,16.436,0,0,0-1.635,4.37h0a4,4,0,0,0,2.594,3.482h0a2.888,2.888,0,0,0,.853.1h0a.361.361,0,0,0,.14-.06h0a38.21,38.21,0,0,0,3.98-4.3h0c.782,2.416,2.594,4.583,4.654,4.583h0a5.12,5.12,0,0,0,4.69-2.736h0a31.059,31.059,0,0,1,4.438-4.8h0a15.576,15.576,0,0,0-1.47,4.132h0a3.31,3.31,0,0,0,3.168,3.446h.421c.982.168,5.116-8.029,10.871-10.8h0l-.959-1.99s-2.274.675-9.7,10.41h0a3.254,3.254,0,0,0-.177.32h0a41.016,41.016,0,0,1,5.541-11.049h0l1.99-3.127c.284-.462.533-1.03.888-1.528h0a18.649,18.649,0,0,0,5.223-.64h0a3.5,3.5,0,0,0,1.563-2.878h0a2.594,2.594,0,0,0-.32-1.244h0l-1.173.817a27.431,27.431,0,0,1-3.055.5h0l.213-.32.071-.071c.995-1.527,2.167-3.34,2.167-3.34h0a2.3,2.3,0,0,0-1.919-1.35h0c-1.385,0-2.2.5-5.471,5.365M107.6-442.664a4.392,4.392,0,0,1,.071-.675h0a28.388,28.388,0,0,1,5.222-4.548h0c-.391,7.284-1.918,8.491-3.055,8.527h0c-1.031,0-2.238-1.563-2.238-3.3M84.445-459.22a3.325,3.325,0,0,0-1.066,2.416h0a2.415,2.415,0,0,0,.568,1.635h0l.924-.924a31.785,31.785,0,0,1,7.816-2.061h0c-1.137,2.238-5.329,13.287-15.241,19.4h0a.13.13,0,0,1-.107.036h0a1.875,1.875,0,0,1-1.492-1.741h0a2,2,0,0,1,.853-1.528h0a.323.323,0,0,0,.107-.249h0a1.037,1.037,0,0,0-.995-.853h0c-1.421,0-2.2,2.558-2.2,3.2h0c0,1.812,1.776,3.3,4.477,3.3h0c8.1,0,17.8-19.612,18.3-20.89h0a4.576,4.576,0,0,0,.32-.924h0c.284,0,.6.036.924.036h0a1.453,1.453,0,0,0,.462-1.137h0a3.044,3.044,0,0,0-.32-1.315h0c-.213-.462-1.137-.639-2.38-.639h0c-3.695,0-10.161,1.563-10.943,2.238" transform="translate(-73.609 462.835)" fill="url(#linear-gradient)"/>
          </g>
        </g>
      </g>
    </g>
    <g id="g40" transform="translate(-17254.186 10713.096)">
      <path id="Union_4" data-name="Union 4" d="M9.66,26.319,6.975,27.1l1.4-3.466A24.588,24.588,0,0,1,9.6,20.814c-6.655-.581-9.6-1.207-9.6-5a4.343,4.343,0,0,1,.536-2.144C1.474,12.1,20.1.047,24.073.047h.266c.09,0,.225-.047.358-.047A2.584,2.584,0,0,1,26.93,1.608s-1.384,2.144-2.545,3.886l-.09.135c-1.875,2.813-1.74,2.456-3.929,6.162v.045L18,15.5c-.311.536-.757.983-1.027,1.519,4.735-.045,8.352-.357,8.352-.357l1.608-.937a2.961,2.961,0,0,1,.312,1.384,4.484,4.484,0,0,1-2.412,3.887,17.4,17.4,0,0,1-4.956.4c-1.608,0-3.439-.089-5.36-.179-.609,1.205-1.01,1.948-1.282,2.416l-2.719,5.346ZM4.643,15.945a56.9,56.9,0,0,0,7.013.895,8.31,8.31,0,0,1,.716-1.207s2.723-4.555,5.4-8.664A122.208,122.208,0,0,0,4.643,15.945Z" transform="translate(0 0)" fill="url(#linear-gradient-4)"/>
    </g>
    <g id="g44" transform="translate(-17232.035 10722.176)">
      <g id="g46" clip-path="url(#clip-path-2)">
        <g id="g52">
          <g id="g54">
            <path id="path62" d="M927.21-371.408c-2.487,0-8.527,12.222-8.527,13.927h0A4,4,0,0,0,921.277-354h0a1.463,1.463,0,0,0,1.176.051h0c1.421-.924,3.3-4.954,6.676-7.974h0a16.259,16.259,0,0,0-1.67,4.441h0A4.024,4.024,0,0,0,930.016-354h0a1.23,1.23,0,0,0,1.046-.048h0c.785-.4.3-.273,4.217-3.883h0l-.454-2.181s-3.833,4-3.84,4.026h0s-.011-.009-.044-.009h0a37.907,37.907,0,0,1,7.461-13.287h0s.036-1.457-2.274-2.025h-.177c-1.1,0-2.913,2.451-4.619,5.329h0c-.745.461-3.334,2.341-9.112,9.958h0a37.391,37.391,0,0,1,7.406-13.263h0c0-.036.036-1.456-2.238-2.025h-.179Z" transform="translate(-918.683 371.408)" fill="url(#linear-gradient-2)"/>
          </g>
        </g>
      </g>
    </g>
  </g>
</svg>
