<svg xmlns="http://www.w3.org/2000/svg" width="110.229" height="15.858" viewBox="0 0 110.229 15.858">
  <g id="Group_18677" data-name="Group 18677" transform="translate(-4.325)">
    <g id="Untitled-1" transform="translate(50.244)">
      <path id="Path_4739" data-name="Path 4739" d="M71.193,37.273a3.277,3.277,0,0,0-2.34-.986,2.663,2.663,0,0,0-2.528,1.747V36.568h-2.5V48.091h2.9V43.4l-.01-.557a6.829,6.829,0,0,1,.466-3.212,1.437,1.437,0,0,1,1.338-.655,1.352,1.352,0,0,1,1.4.67A8.163,8.163,0,0,1,71.193,37.273Z" transform="translate(-52.725 -32.463)" fill="#3b3b3b" fill-rule="evenodd"/>
      <path id="Path_4740" data-name="Path 4740" d="M25.31,25.427a1.416,1.416,0,0,0-.688-1.315,3.91,3.91,0,0,0-1.857-.308H21.94V27h.93q1.742,0,2.2-.688A1.559,1.559,0,0,0,25.31,25.427Zm2.855,0a4.318,4.318,0,0,1-.817,2.662,4.251,4.251,0,0,1-2.315,1.527,13.1,13.1,0,0,1-3.092.242v6.605H19L19,20.84h3.114a12.3,12.3,0,0,1,3.02.273,3.99,3.99,0,0,1,2.395,1.8A4.751,4.751,0,0,1,28.164,25.432Z" transform="translate(-18.997 -20.84)" fill="#3b3b3b" fill-rule="evenodd"/>
      <path id="Path_4741" data-name="Path 4741" d="M104.467,42.388a3.37,3.37,0,0,0-.843-2.35,3.154,3.154,0,0,0-4.5.026,3.348,3.348,0,0,0-.834,2.324,3.4,3.4,0,0,0,.824,2.344,2.856,2.856,0,0,0,2.25.97,2.887,2.887,0,0,0,2.262-.97A3.368,3.368,0,0,0,104.467,42.388Zm2.9-.006a6.046,6.046,0,0,1-.8,3.023,5.725,5.725,0,0,1-2.181,2.2,6.032,6.032,0,0,1-3.049.792,5.648,5.648,0,0,1-4.193-1.749A5.832,5.832,0,0,1,95.432,42.4a5.763,5.763,0,0,1,1.955-4.46,5.671,5.671,0,0,1,3.942-1.555,6.036,6.036,0,0,1,3.028.8,5.778,5.778,0,0,1,2.211,2.194A5.944,5.944,0,0,1,107.365,42.382Z" transform="translate(-76.512 -32.539)" fill="#3b3b3b" fill-rule="evenodd"/>
      <path id="Path_4742" data-name="Path 4742" d="M159.529,29.454V26.629h-4.743V23.8h4.66l-2.969-2.965h-4.609V36.468h2.918l0-7.014Z" transform="translate(-118.976 -20.84)" fill="#3b3b3b" fill-rule="evenodd"/>
      <path id="Path_4743" data-name="Path 4743" d="M214.119,36.468l.006-15.628h-2.877l-.006,15.628Z" transform="translate(-163.655 -20.84)" fill="#3b3b3b" fill-rule="evenodd"/>
      <path id="Path_4744" data-name="Path 4744" d="M239.484,40.937h-6.159a3.68,3.68,0,0,1,1.043-1.454,3.423,3.423,0,0,1,2.084-.66,3.327,3.327,0,0,1,1.9.567A2.747,2.747,0,0,1,239.484,40.937Zm2.9,1.739a6.093,6.093,0,0,0-1.689-4.567,5.864,5.864,0,0,0-4.382-1.722,5.619,5.619,0,0,0-4.243,1.738,6.014,6.014,0,0,0-1.662,4.33,5.692,5.692,0,0,0,1.717,4.282,6.01,6.01,0,0,0,4.353,1.659,6.281,6.281,0,0,0,3.843-1.148l-1.9-1.895a3.873,3.873,0,0,1-1.954.5,3.414,3.414,0,0,1-2.18-.691,2.993,2.993,0,0,1-1.09-1.939h9.176Z" transform="translate(-178.075 -32.539)" fill="#3b3b3b" fill-rule="evenodd"/>
      <path id="Path_4745" data-name="Path 4745" d="M193.964,51.938l0-7.667L191.086,41.4V51.938Z" transform="translate(-148.488 -36.31)" fill="#3b3b3b" fill-rule="evenodd"/>
      <path id="Path_4746" data-name="Path 4746" d="M187.958,25.767V20.84h-4.934Z" transform="translate(-142.422 -20.84)" fill="#ff7d00" fill-rule="evenodd"/>
    </g>
    <text id="UX_UI_by" data-name="UX &amp; UI by" transform="translate(44.325 11.367)" fill="#3b3b3b" font-size="9" font-family="Assistant-SemiBold, Assistant" font-weight="600"><tspan x="-39.222" y="0">UX &amp; UI by</tspan></text>
  </g>
</svg>
