<svg xmlns="http://www.w3.org/2000/svg" width="20.938" height="20.938" viewBox="0 0 20.938 20.938">
  <path id="Icon_ionic-ios-close-circle" data-name="Icon ionic-ios-close-circle" d="M13.844,3.375A10.469,10.469,0,1,0,24.313,13.844,10.467,10.467,0,0,0,13.844,3.375ZM16.5,17.634l-2.652-2.652-2.652,2.652A.8.8,0,1,1,10.054,16.5l2.652-2.652-2.652-2.652a.8.8,0,0,1,1.137-1.137l2.652,2.652L16.5,10.054a.8.8,0,0,1,1.137,1.137l-2.652,2.652L17.634,16.5a.808.808,0,0,1,0,1.137A.8.8,0,0,1,16.5,17.634Z" transform="translate(-3.375 -3.375)" fill="#7990a6" opacity="0.43"/>
</svg>
