<svg xmlns="http://www.w3.org/2000/svg" width="21.317" height="18.944" viewBox="0 0 21.317 18.944">
  <path id="edit" d="M14.9,3.175l3.338,3.338a.362.362,0,0,1,0,.511l-8.083,8.083-3.434.381a.72.72,0,0,1-.8-.8l.381-3.434,8.083-8.083a.362.362,0,0,1,.511,0Zm6-.847L19.089.522a1.447,1.447,0,0,0-2.043,0l-1.31,1.31a.362.362,0,0,0,0,.511l3.338,3.338a.362.362,0,0,0,.511,0l1.31-1.31A1.447,1.447,0,0,0,20.895,2.328ZM14.211,12.908v3.767H2.369V4.833h8.5a.455.455,0,0,0,.315-.13l1.48-1.48a.444.444,0,0,0-.315-.759H1.776A1.777,1.777,0,0,0,0,4.241V17.268a1.777,1.777,0,0,0,1.776,1.776H14.8a1.777,1.777,0,0,0,1.776-1.776v-5.84a.445.445,0,0,0-.759-.315l-1.48,1.48A.455.455,0,0,0,14.211,12.908Z" transform="translate(0 -0.1)" fill="#873d4c"/>
</svg>
