<svg xmlns="http://www.w3.org/2000/svg" xmlns:xlink="http://www.w3.org/1999/xlink" width="35" height="35" viewBox="0 0 35 35">
  <defs>
    <clipPath id="clip-path">
      <rect id="Rectangle_3722" data-name="Rectangle 3722" width="19" height="19" transform="translate(7.697 7.71)" fill="#d5c272"/>
    </clipPath>
  </defs>
  <g id="Group_18539" data-name="Group 18539" transform="translate(0.304 0.29)">
    <circle id="Ellipse_175" data-name="Ellipse 175" cx="17.5" cy="17.5" r="17.5" transform="translate(-0.304 -0.29)" fill="#873d4c"/>
    <g id="Mask_Group_7" data-name="Mask Group 7" clip-path="url(#clip-path)">
      <path id="settings" d="M19.129,12.519a7.2,7.2,0,0,0,.069-.931,7.2,7.2,0,0,0-.069-.931l2.06-1.566a.471.471,0,0,0,.117-.609L19.355,5.194a.5.5,0,0,0-.6-.209l-2.432.95A7.186,7.186,0,0,0,14.676,5L14.3,2.486a.473.473,0,0,0-.474-.4H9.916a.473.473,0,0,0-.479.4L9.069,5a7.557,7.557,0,0,0-1.65.931l-2.432-.95a.482.482,0,0,0-.6.209L2.438,8.482a.46.46,0,0,0,.117.609l2.06,1.566a7.332,7.332,0,0,0-.069.931,7.332,7.332,0,0,0,.069.931l-2.06,1.573a.471.471,0,0,0-.117.609l1.953,3.287a.5.5,0,0,0,.6.209l2.432-.95a7.186,7.186,0,0,0,1.65.931l.372,2.518a.473.473,0,0,0,.475.39h3.907a.473.473,0,0,0,.479-.4l.372-2.518a7.557,7.557,0,0,0,1.65-.931l2.432.95a.482.482,0,0,0,.6-.209L21.3,14.691a.471.471,0,0,0-.116-.6Zm-7.257,2.394a3.326,3.326,0,1,1,3.419-3.328,3.377,3.377,0,0,1-3.418,3.328Z" transform="translate(5.326 5.624)" fill="#d5c272"/>
    </g>
  </g>
</svg>
