<svg xmlns="http://www.w3.org/2000/svg" width="18.849" height="15.989" viewBox="0 0 18.849 15.989">
  <g id="team_2_" data-name="team (2)" transform="translate(0 -38.84)">
    <g id="Group_14960" data-name="Group 14960" transform="translate(14.67 47.472)">
      <g id="Group_14959" data-name="Group 14959">
        <path id="Path_1158" data-name="Path 1158" d="M399.952,273.32h-1.458a3.791,3.791,0,0,1,.23,1.3v5.509a1.625,1.625,0,0,1-.094.544h2.41a1.634,1.634,0,0,0,1.633-1.633v-3A2.724,2.724,0,0,0,399.952,273.32Z" transform="translate(-398.494 -273.32)" fill="#7990a6"/>
      </g>
    </g>
    <g id="Group_14962" data-name="Group 14962" transform="translate(0 47.472)">
      <g id="Group_14961" data-name="Group 14961">
        <path id="Path_1159" data-name="Path 1159" d="M3.949,274.624a3.792,3.792,0,0,1,.23-1.3H2.721A2.724,2.724,0,0,0,0,276.042v3a1.634,1.634,0,0,0,1.633,1.633h2.41a1.625,1.625,0,0,1-.094-.544Z" transform="translate(0 -273.321)" fill="#7990a6"/>
      </g>
    </g>
    <g id="Group_14964" data-name="Group 14964" transform="translate(5.037 46.055)">
      <g id="Group_14963" data-name="Group 14963">
        <path id="Path_1160" data-name="Path 1160" d="M142.882,234.815H139.55a2.724,2.724,0,0,0-2.721,2.721v5.509a.544.544,0,0,0,.544.544h7.686a.544.544,0,0,0,.544-.544v-5.509A2.724,2.724,0,0,0,142.882,234.815Z" transform="translate(-136.829 -234.815)" fill="#7990a6"/>
      </g>
    </g>
    <g id="Group_14966" data-name="Group 14966" transform="translate(6.152 38.84)">
      <g id="Group_14965" data-name="Group 14965" transform="translate(0 0)">
        <path id="Path_1161" data-name="Path 1161" d="M170.386,38.84a3.272,3.272,0,1,0,3.272,3.272A3.276,3.276,0,0,0,170.386,38.84Z" transform="translate(-167.114 -38.84)" fill="#7990a6"/>
      </g>
    </g>
    <g id="Group_14968" data-name="Group 14968" transform="translate(1.231 41.89)">
      <g id="Group_14967" data-name="Group 14967" transform="translate(0 0)">
        <path id="Path_1162" data-name="Path 1162" d="M35.89,121.689a2.446,2.446,0,1,0,2.447,2.447A2.45,2.45,0,0,0,35.89,121.689Z" transform="translate(-33.443 -121.689)" fill="#7990a6"/>
      </g>
    </g>
    <g id="Group_14970" data-name="Group 14970" transform="translate(12.723 41.89)">
      <g id="Group_14969" data-name="Group 14969" transform="translate(0 0)">
        <path id="Path_1163" data-name="Path 1163" d="M348.054,121.689a2.447,2.447,0,1,0,2.447,2.447A2.45,2.45,0,0,0,348.054,121.689Z" transform="translate(-345.607 -121.689)" fill="#7990a6"/>
      </g>
    </g>
  </g>
</svg>
