<svg xmlns="http://www.w3.org/2000/svg" width="26.879" height="26.879" viewBox="0 0 26.879 26.879"><defs><style>.a{fill:#fff;}</style></defs><path class="a" d="M13.44,8a13.44,13.44,0,1,0,13.44,13.44A13.437,13.437,0,0,0,13.44,8Zm0,5.2a4.769,4.769,0,1,1-4.769,4.769A4.769,4.769,0,0,1,13.44,13.2Zm0,18.642a10.385,10.385,0,0,1-7.939-3.7,6.042,6.042,0,0,1,5.338-3.241,1.326,1.326,0,0,1,.385.06,7.175,7.175,0,0,0,2.216.374,7.148,7.148,0,0,0,2.216-.374,1.326,1.326,0,0,1,.385-.06,6.042,6.042,0,0,1,5.338,3.241A10.385,10.385,0,0,1,13.44,31.844Z" transform="translate(0 -8)"/></svg>