<svg xmlns="http://www.w3.org/2000/svg" width="12.704" height="14.518" viewBox="0 0 12.704 14.518"><defs><style>.a{fill:#7990a6;}</style></defs><path class="a" d="M11.343,1.815H9.981V.454A.455.455,0,0,0,9.528,0H8.62a.455.455,0,0,0-.454.454V1.815H4.537V.454A.455.455,0,0,0,4.083,0H3.176a.455.455,0,0,0-.454.454V1.815H1.361A1.361,1.361,0,0,0,0,3.176V4.537H12.7V3.176A1.361,1.361,0,0,0,11.343,1.815ZM0,13.157a1.361,1.361,0,0,0,1.361,1.361h9.981A1.361,1.361,0,0,0,12.7,13.157V5.444H0ZM3.8,9.083l1.551-.227.695-1.406a.34.34,0,0,1,.61,0l.695,1.406L8.9,9.083a.341.341,0,0,1,.187.581L7.968,10.758l.267,1.548a.339.339,0,0,1-.493.357l-1.389-.732-1.387.732a.34.34,0,0,1-.493-.357l.267-1.548L3.615,9.664A.34.34,0,0,1,3.8,9.083Z"/></svg>