<svg xmlns="http://www.w3.org/2000/svg" width="18.341" height="20.961" viewBox="0 0 18.341 20.961">
  <path id="calendar-alt" d="M0,19a1.966,1.966,0,0,0,1.965,1.965H16.376A1.966,1.966,0,0,0,18.341,19V7.86H0Zm13.1-8.024a.493.493,0,0,1,.491-.491h1.638a.493.493,0,0,1,.491.491v1.638a.493.493,0,0,1-.491.491H13.592a.493.493,0,0,1-.491-.491Zm0,5.24a.493.493,0,0,1,.491-.491h1.638a.493.493,0,0,1,.491.491V17.85a.493.493,0,0,1-.491.491H13.592a.493.493,0,0,1-.491-.491Zm-5.24-5.24a.493.493,0,0,1,.491-.491H9.989a.493.493,0,0,1,.491.491v1.638a.493.493,0,0,1-.491.491H8.352a.493.493,0,0,1-.491-.491Zm0,5.24a.493.493,0,0,1,.491-.491H9.989a.493.493,0,0,1,.491.491V17.85a.493.493,0,0,1-.491.491H8.352a.493.493,0,0,1-.491-.491Zm-5.24-5.24a.493.493,0,0,1,.491-.491H4.749a.493.493,0,0,1,.491.491v1.638a.493.493,0,0,1-.491.491H3.111a.493.493,0,0,1-.491-.491Zm0,5.24a.493.493,0,0,1,.491-.491H4.749a.493.493,0,0,1,.491.491V17.85a.493.493,0,0,1-.491.491H3.111a.493.493,0,0,1-.491-.491ZM16.376,2.62H14.411V.655A.657.657,0,0,0,13.756,0h-1.31a.657.657,0,0,0-.655.655V2.62H6.55V.655A.657.657,0,0,0,5.9,0H4.585A.657.657,0,0,0,3.93.655V2.62H1.965A1.966,1.966,0,0,0,0,4.585V6.55H18.341V4.585A1.966,1.966,0,0,0,16.376,2.62Z" fill="#7990a6"/>
</svg>
