<svg xmlns="http://www.w3.org/2000/svg" width="14.354" height="14.354" viewBox="0 0 14.354 14.354">
  <path id="download" d="M6.055,0H8.3a.671.671,0,0,1,.673.673v4.71H11.43a.56.56,0,0,1,.4.956L7.561,10.605a.543.543,0,0,1-.765,0L2.526,6.339a.56.56,0,0,1,.4-.956H5.383V.673A.671.671,0,0,1,6.055,0Zm8.3,10.541v3.14a.671.671,0,0,1-.673.673H.673A.671.671,0,0,1,0,13.681v-3.14a.671.671,0,0,1,.673-.673H4.785l1.374,1.374a1.437,1.437,0,0,0,2.035,0L9.568,9.868h4.113A.671.671,0,0,1,14.354,10.541Zm-3.476,2.467a.561.561,0,1,0-.561.561A.562.562,0,0,0,10.877,13.008Zm1.794,0a.561.561,0,1,0-.561.561A.562.562,0,0,0,12.671,13.008Z" fill="#7990a6"/>
</svg>
