<svg xmlns="http://www.w3.org/2000/svg" width="14.66" height="19.547" viewBox="0 0 14.66 19.547"><defs><style>.a{fill:#873d4c;}</style></defs><path class="a" d="M8.552,5.192V0H.916A.914.914,0,0,0,0,.916V18.631a.914.914,0,0,0,.916.916H13.744a.914.914,0,0,0,.916-.916V6.108H9.468A.919.919,0,0,1,8.552,5.192Zm2.294,4.066-2.294,3.57,2.294,3.57a.459.459,0,0,1-.386.706H9.128a.46.46,0,0,1-.4-.241C7.975,15.481,7.33,14.24,7.33,14.24c-.244.565-.382.764-1.4,2.627a.454.454,0,0,1-.4.241H4.2a.459.459,0,0,1-.386-.706l2.3-3.57-2.3-3.57A.458.458,0,0,1,4.2,8.556H5.528a.46.46,0,0,1,.4.241c1,1.863.764,1.283,1.4,2.615,0,0,.233-.447,1.4-2.615a.46.46,0,0,1,.4-.241h1.329a.455.455,0,0,1,.386.7Zm3.814-4.6v.233H9.773V0h.233a.916.916,0,0,1,.649.267l3.738,3.741A.913.913,0,0,1,14.66,4.654Z"/></svg>