<svg id="money_1_" data-name="money (1)" xmlns="http://www.w3.org/2000/svg" width="18.472" height="18.472" viewBox="0 0 18.472 18.472">
  <g id="Group_18187" data-name="Group 18187" transform="translate(0 0)">
    <g id="Group_18186" data-name="Group 18186">
      <path id="Path_5313" data-name="Path 5313" d="M192,87.553c0,1.38,2.746,2.1,5.458,2.1s5.458-.722,5.458-2.1C202.915,84.793,192,84.793,192,87.553Z" transform="translate(-184.443 -82.118)" fill="#873d4c"/>
      <path id="Path_5314" data-name="Path 5314" d="M202.713,188.36a.421.421,0,0,0-.412-.013,13.208,13.208,0,0,1-9.686,0,.42.42,0,0,0-.615.372v.127c0,1.38,2.746,2.1,5.458,2.1s5.458-.722,5.458-2.1v-.127A.42.42,0,0,0,202.713,188.36Z" transform="translate(-184.443 -180.888)" fill="#873d4c"/>
      <path id="Path_5315" data-name="Path 5315" d="M64,301.258c0,1.38,2.746,2.1,5.458,2.1s5.458-.722,5.458-2.1C74.915,298.5,64,298.5,64,301.258Z" transform="translate(-61.481 -287.412)" fill="#873d4c"/>
      <path id="Path_5316" data-name="Path 5316" d="M74.713,402.069a.422.422,0,0,0-.412-.013,10.9,10.9,0,0,1-4.843.92,10.9,10.9,0,0,1-4.843-.92.42.42,0,0,0-.615.372v.127c0,1.38,2.746,2.1,5.458,2.1s5.458-.722,5.458-2.1v-.127A.42.42,0,0,0,74.713,402.069Z" transform="translate(-61.481 -386.186)" fill="#873d4c"/>
      <path id="Path_5317" data-name="Path 5317" d="M5.458,4.173a14.757,14.757,0,0,0,1.685-.1.42.42,0,0,0,.24-.111,6.1,6.1,0,0,1,3.142-1.279.42.42,0,0,0,.326-.273,1.008,1.008,0,0,0,.064-.344C10.915-.69,0-.69,0,2.07,0,3.451,2.746,4.173,5.458,4.173Z" transform="translate(0 0)" fill="#873d4c"/>
      <path id="Path_5318" data-name="Path 5318" d="M5.458,105.466c.348,0,.687-.012,1.015-.034a.421.421,0,0,0,.366-.566,1.859,1.859,0,0,1-.119-.684.42.42,0,0,0-.13-.3.4.4,0,0,0-.31-.116c-.274.013-.549.022-.822.022a10.9,10.9,0,0,1-4.843-.92.42.42,0,0,0-.615.373v.127C0,104.744,2.746,105.466,5.458,105.466Z" transform="translate(0 -98.769)" fill="#873d4c"/>
      <path id="Path_5319" data-name="Path 5319" d="M5.458,169.578c.348,0,.687-.012,1.015-.034a.421.421,0,0,0,.366-.566,1.9,1.9,0,0,1-.121-.684.42.42,0,0,0-.13-.3.411.411,0,0,0-.31-.116c-.273.013-.547.022-.82.022a10.9,10.9,0,0,1-4.843-.92.42.42,0,0,0-.615.373v.127C0,168.855,2.746,169.578,5.458,169.578Z" transform="translate(0 -160.358)" fill="#873d4c"/>
      <path id="Path_5320" data-name="Path 5320" d="M363.542,316.572a.418.418,0,0,0-.412-.013,9.084,9.084,0,0,1-3.214.837.485.485,0,0,0-.37.5,1.882,1.882,0,0,1-.1.622.42.42,0,0,0,.4.558l.045,0c2.418-.261,3.861-1.016,3.861-2.018v-.127A.42.42,0,0,0,363.542,316.572Z" transform="translate(-345.272 -304.054)" fill="#873d4c"/>
      <path id="Path_5321" data-name="Path 5321" d="M192.421,253.368l.278,0h.007a.421.421,0,0,0,.174-.8l-.09-.04c-.06-.026-.12-.053-.176-.082a.42.42,0,0,0-.614.373v.127A.42.42,0,0,0,192.421,253.368Z" transform="translate(-184.444 -242.466)" fill="#873d4c"/>
      <path id="Path_5322" data-name="Path 5322" d="M318.781,252.472a.421.421,0,0,0-.412-.013,10.9,10.9,0,0,1-4.843.92l-.277-.005a.431.431,0,0,0-.415.329.42.42,0,0,0,.236.474,3.736,3.736,0,0,1,1.1.731.42.42,0,0,0,.3.123h.027c2.07-.131,4.487-.753,4.487-2.072v-.127A.42.42,0,0,0,318.781,252.472Z" transform="translate(-300.511 -242.477)" fill="#873d4c"/>
      <path id="Path_5323" data-name="Path 5323" d="M3.511,233.56a.418.418,0,0,0,.155-.03,10.1,10.1,0,0,1,2.681-.6.509.509,0,0,0,.37-.525.421.421,0,0,0-.44-.42c-.273.013-.547.022-.82.022a10.9,10.9,0,0,1-4.843-.92.42.42,0,0,0-.615.372v.127c0,.929,1.291,1.665,3.453,1.968A.4.4,0,0,0,3.511,233.56Z" transform="translate(0 -221.948)" fill="#873d4c"/>
    </g>
  </g>
</svg>
