<svg xmlns="http://www.w3.org/2000/svg" width="19.868" height="16.081" viewBox="0 0 19.868 16.081"><defs><style>.a{fill:#873d4c;}</style></defs><g transform="translate(-13.361 -32)"><path class="a" d="M187.434,40.04a4.1,4.1,0,0,0,3.733-3.978,3.782,3.782,0,0,0-.973-2.893,3.854,3.854,0,0,0-5.523-.007,3.8,3.8,0,0,0-.969,2.9A4.1,4.1,0,0,0,187.434,40.04Z" transform="translate(-161.671)"/><path class="a" d="M94.909,293.447a6.145,6.145,0,0,0-2.735-4.083,8.81,8.81,0,0,0-9.418,0,6.145,6.145,0,0,0-2.735,4.083,1.269,1.269,0,0,0,.258,1.045,1.111,1.111,0,0,0,.868.4H93.783a1.111,1.111,0,0,0,.869-.4A1.271,1.271,0,0,0,94.909,293.447Z" transform="translate(-61.702 -246.811)"/><path class="a" d="M21.162,167.508v-2.346h2.346a.938.938,0,1,0,0-1.877H21.162v-2.346a.938.938,0,1,0-1.877,0v2.346H16.938a.938.938,0,0,0,0,1.877h2.346v2.346a.938.938,0,1,0,1.877,0Z" transform="translate(-2.639 -125.044)"/></g></svg>