<svg xmlns="http://www.w3.org/2000/svg" width="22.198" height="14.799" viewBox="0 0 22.198 14.799">
  <g id="eye-sharp" transform="translate(-16 -96)">
    <circle id="Ellipse_161" data-name="Ellipse 161" cx="3.11" cy="3.11" r="3.11" transform="translate(24.085 100.354)" fill="#873d4c"/>
    <path id="Path_5329" data-name="Path 5329" d="M33.519,98.089A11.238,11.238,0,0,0,27.088,96a10.855,10.855,0,0,0-5.854,1.78A19.738,19.738,0,0,0,16,103.4a17.842,17.842,0,0,0,4.634,5.327,11.069,11.069,0,0,0,12.9,0A17.724,17.724,0,0,0,38.2,103.4,17.969,17.969,0,0,0,33.519,98.089Zm-6.42,9.75a4.44,4.44,0,1,1,4.44-4.44A4.44,4.44,0,0,1,27.1,107.839Z" fill="#873d4c"/>
  </g>
</svg>
