<svg xmlns="http://www.w3.org/2000/svg" width="19.34" height="17.191" viewBox="0 0 19.34 17.191"><defs><style>.a{fill:#873d4c;}</style></defs><path class="a" d="M19.087,5.958l-4.835,4.566a.806.806,0,0,1-1.359-.586V7.522c-4.854.033-6.9,1.179-5.532,5.753a.538.538,0,0,1-.84.582A6.463,6.463,0,0,1,4.029,9.043c0-4.833,3.949-5.792,8.864-5.819V.806A.806.806,0,0,1,14.252.22l4.835,4.566A.806.806,0,0,1,19.087,5.958Zm-6.194,6.772v2.312H2.149V4.3h1.71a.4.4,0,0,0,.29-.124A6.546,6.546,0,0,1,5.862,2.909a.4.4,0,0,0-.186-.76H1.612A1.612,1.612,0,0,0,0,3.76V15.579a1.612,1.612,0,0,0,1.612,1.612H13.43a1.612,1.612,0,0,0,1.612-1.612V12.6a.4.4,0,0,0-.538-.379,2.412,2.412,0,0,1-1.148.113A.4.4,0,0,0,12.893,12.729Z" transform="translate(0 0)"/></svg>