<svg xmlns="http://www.w3.org/2000/svg" width="41.57" height="41.57" viewBox="0 0 41.57 41.57">
  <g id="Group_18617" data-name="Group 18617" transform="translate(-913.252 -908.252)">
    <circle id="Ellipse_166" data-name="Ellipse 166" cx="20" cy="20" r="20" transform="translate(914.038 909.038)" fill="#d5c272"/>
    <path id="check-circle" d="M49.57,28.785A20.785,20.785,0,1,1,28.785,8,20.785,20.785,0,0,1,49.57,28.785ZM26.381,39.791,41.8,24.369a1.341,1.341,0,0,0,0-1.9l-1.9-1.9a1.341,1.341,0,0,0-1.9,0L25.433,33.153l-5.872-5.872a1.341,1.341,0,0,0-1.9,0l-1.9,1.9a1.341,1.341,0,0,0,0,1.9l8.716,8.716a1.341,1.341,0,0,0,1.9,0Z" transform="translate(905.252 900.252)" fill="#873d4c"/>
  </g>
</svg>
