<svg xmlns="http://www.w3.org/2000/svg" width="34.273" height="34.273" viewBox="0 0 34.273 34.273">
  <g id="Group_18522" data-name="Group 18522" transform="translate(-954.863 -1192.863)">
    <g id="ic_delete_forever_24px" transform="translate(954.863 1192.863)">
      <path id="Path_5348" data-name="Path 5348" d="M0,0H34.273V34.273H0Z" fill="none"/>
      <path id="Path_5349" data-name="Path 5349" d="M6.214,22.556A2.444,2.444,0,0,0,8.643,25h9.714a2.444,2.444,0,0,0,2.429-2.444V7.889H6.214Zm2.987-8.7,1.712-1.723L13.5,14.721l2.574-2.591,1.712,1.723-2.574,2.591,2.574,2.591-1.712,1.723L13.5,18.168l-2.574,2.591L9.214,19.036l2.574-2.591ZM17.75,4.222,16.536,3H10.464L9.25,4.222H5V6.667H22V4.222Z" transform="translate(2.14 3.137)" fill="#7990a6"/>
      <path id="Path_5350" data-name="Path 5350" d="M0,0H34.273V34.273H0Z" fill="none"/>
    </g>
  </g>
</svg>
