<svg xmlns="http://www.w3.org/2000/svg" width="34.079" height="45.439" viewBox="0 0 34.079 45.439">
  <path id="Icon_awesome-file-alt" data-name="Icon awesome-file-alt" d="M19.88,12.07V0H2.13A2.125,2.125,0,0,0,0,2.13V43.309a2.125,2.125,0,0,0,2.13,2.13H31.949a2.125,2.125,0,0,0,2.13-2.13V14.2H22.009A2.136,2.136,0,0,1,19.88,12.07Zm5.68,20.944a1.068,1.068,0,0,1-1.065,1.065H9.585A1.068,1.068,0,0,1,8.52,33.014V32.3a1.068,1.068,0,0,1,1.065-1.065h14.91A1.068,1.068,0,0,1,25.559,32.3Zm0-5.68A1.068,1.068,0,0,1,24.494,28.4H9.585A1.068,1.068,0,0,1,8.52,27.334v-.71a1.068,1.068,0,0,1,1.065-1.065h14.91a1.068,1.068,0,0,1,1.065,1.065Zm0-6.39v.71a1.068,1.068,0,0,1-1.065,1.065H9.585A1.068,1.068,0,0,1,8.52,21.654v-.71A1.068,1.068,0,0,1,9.585,19.88h14.91A1.068,1.068,0,0,1,25.559,20.944Zm8.52-10.126v.541H22.719V0h.541A2.128,2.128,0,0,1,24.77.621l8.688,8.7A2.123,2.123,0,0,1,34.079,10.818Z" fill="#7990a6"/>
</svg>
