<svg xmlns="http://www.w3.org/2000/svg" width="36.003" height="27.002" viewBox="0 0 36.003 27.002">
  <path id="image" d="M32.628,91H3.375A3.375,3.375,0,0,1,0,87.627V67.375A3.375,3.375,0,0,1,3.375,64H32.628A3.375,3.375,0,0,1,36,67.375V87.627A3.375,3.375,0,0,1,32.628,91ZM7.876,67.938a3.938,3.938,0,1,0,3.938,3.938A3.938,3.938,0,0,0,7.876,67.938ZM4.5,86.5h27V78.626l-6.154-6.154a.844.844,0,0,0-1.193,0L14.626,82l-3.9-3.9a.844.844,0,0,0-1.193,0L4.5,83.127Z" transform="translate(0 -64)" fill="#7990a6"/>
</svg>
