<svg xmlns="http://www.w3.org/2000/svg" width="17.014" height="11.91" viewBox="0 0 17.014 11.91"><defs><style>.a{fill:#7990a6;}</style></defs><path class="a" d="M2.552,37.1a1.7,1.7,0,1,0-1.7-1.7A1.7,1.7,0,0,0,2.552,37.1Zm11.91,0a1.7,1.7,0,1,0-1.7-1.7A1.7,1.7,0,0,0,14.462,37.1Zm.851.851h-1.7a1.7,1.7,0,0,0-1.2.494,3.889,3.889,0,0,1,2,2.908h1.755a.85.85,0,0,0,.851-.851v-.851A1.7,1.7,0,0,0,15.313,37.955Zm-6.806,0A2.977,2.977,0,1,0,5.53,34.977,2.976,2.976,0,0,0,8.507,37.955Zm2.042.851h-.221a4.111,4.111,0,0,1-3.642,0H6.465A3.063,3.063,0,0,0,3.4,41.868v.766A1.276,1.276,0,0,0,4.679,43.91h7.656a1.276,1.276,0,0,0,1.276-1.276v-.766A3.063,3.063,0,0,0,10.549,38.806ZM4.6,38.449a1.7,1.7,0,0,0-1.2-.494H1.7a1.7,1.7,0,0,0-1.7,1.7v.851a.85.85,0,0,0,.851.851H2.6A3.9,3.9,0,0,1,4.6,38.449Z" transform="translate(0 -32)"/></svg>